<mxfile host="app.diagrams.net" modified="2023-11-01T22:02:34.053Z" agent="Mozilla/5.0 (Windows NT 10.0; Win64; x64) AppleWebKit/537.36 (KHTML, like Gecko) Chrome/118.0.0.0 Safari/537.36" etag="EUrah2oB6zKQGWsAr6j6" version="22.0.8" type="github">
  <diagram name="Page-1" id="E5dneFXtO3QZj5nC86i5">
    <mxGraphModel dx="1434" dy="788" grid="1" gridSize="10" guides="1" tooltips="1" connect="1" arrows="1" fold="1" page="1" pageScale="1" pageWidth="850" pageHeight="1100" math="0" shadow="0">
      <root>
        <mxCell id="0" />
        <mxCell id="1" parent="0" />
        <mxCell id="LUR7WWk-kfDivNET-B8A-1" value="" style="edgeStyle=orthogonalEdgeStyle;rounded=0;orthogonalLoop=1;jettySize=auto;html=1;" edge="1" parent="1" source="LUR7WWk-kfDivNET-B8A-2" target="LUR7WWk-kfDivNET-B8A-7">
          <mxGeometry relative="1" as="geometry" />
        </mxCell>
        <mxCell id="LUR7WWk-kfDivNET-B8A-2" value="Start" style="ellipse;whiteSpace=wrap;html=1;" vertex="1" parent="1">
          <mxGeometry x="380" y="10" width="120" height="80" as="geometry" />
        </mxCell>
        <mxCell id="LUR7WWk-kfDivNET-B8A-3" value="" style="edgeStyle=orthogonalEdgeStyle;rounded=0;orthogonalLoop=1;jettySize=auto;html=1;" edge="1" parent="1" source="LUR7WWk-kfDivNET-B8A-7" target="LUR7WWk-kfDivNET-B8A-12">
          <mxGeometry relative="1" as="geometry">
            <Array as="points">
              <mxPoint x="210" y="260" />
            </Array>
          </mxGeometry>
        </mxCell>
        <mxCell id="LUR7WWk-kfDivNET-B8A-4" value="True" style="edgeLabel;html=1;align=center;verticalAlign=middle;resizable=0;points=[];" vertex="1" connectable="0" parent="LUR7WWk-kfDivNET-B8A-3">
          <mxGeometry x="-0.536" y="-3" relative="1" as="geometry">
            <mxPoint as="offset" />
          </mxGeometry>
        </mxCell>
        <mxCell id="LUR7WWk-kfDivNET-B8A-5" value="" style="edgeStyle=orthogonalEdgeStyle;rounded=0;orthogonalLoop=1;jettySize=auto;html=1;" edge="1" parent="1" source="LUR7WWk-kfDivNET-B8A-7" target="LUR7WWk-kfDivNET-B8A-17">
          <mxGeometry relative="1" as="geometry">
            <Array as="points">
              <mxPoint x="690" y="260" />
            </Array>
          </mxGeometry>
        </mxCell>
        <mxCell id="LUR7WWk-kfDivNET-B8A-6" value="False" style="edgeLabel;html=1;align=center;verticalAlign=middle;resizable=0;points=[];" vertex="1" connectable="0" parent="LUR7WWk-kfDivNET-B8A-5">
          <mxGeometry x="-0.5926" y="-1" relative="1" as="geometry">
            <mxPoint as="offset" />
          </mxGeometry>
        </mxCell>
        <mxCell id="LUR7WWk-kfDivNET-B8A-7" value="num1&amp;lt;num2" style="rhombus;whiteSpace=wrap;html=1;" vertex="1" parent="1">
          <mxGeometry x="360" y="200" width="160" height="120" as="geometry" />
        </mxCell>
        <mxCell id="LUR7WWk-kfDivNET-B8A-8" value="" style="edgeStyle=orthogonalEdgeStyle;rounded=0;orthogonalLoop=1;jettySize=auto;html=1;" edge="1" parent="1" source="LUR7WWk-kfDivNET-B8A-12" target="LUR7WWk-kfDivNET-B8A-18">
          <mxGeometry relative="1" as="geometry" />
        </mxCell>
        <mxCell id="LUR7WWk-kfDivNET-B8A-9" value="True" style="edgeLabel;html=1;align=center;verticalAlign=middle;resizable=0;points=[];" vertex="1" connectable="0" parent="LUR7WWk-kfDivNET-B8A-8">
          <mxGeometry x="0.0364" y="1" relative="1" as="geometry">
            <mxPoint as="offset" />
          </mxGeometry>
        </mxCell>
        <mxCell id="LUR7WWk-kfDivNET-B8A-10" value="" style="edgeStyle=orthogonalEdgeStyle;rounded=0;orthogonalLoop=1;jettySize=auto;html=1;" edge="1" parent="1" source="LUR7WWk-kfDivNET-B8A-12" target="LUR7WWk-kfDivNET-B8A-19">
          <mxGeometry relative="1" as="geometry" />
        </mxCell>
        <mxCell id="LUR7WWk-kfDivNET-B8A-11" value="False" style="edgeLabel;html=1;align=center;verticalAlign=middle;resizable=0;points=[];" vertex="1" connectable="0" parent="LUR7WWk-kfDivNET-B8A-10">
          <mxGeometry x="-0.0364" y="1" relative="1" as="geometry">
            <mxPoint as="offset" />
          </mxGeometry>
        </mxCell>
        <mxCell id="LUR7WWk-kfDivNET-B8A-12" value="num1&amp;lt;num3" style="rhombus;whiteSpace=wrap;html=1;" vertex="1" parent="1">
          <mxGeometry x="130" y="320" width="160" height="120" as="geometry" />
        </mxCell>
        <mxCell id="LUR7WWk-kfDivNET-B8A-13" value="" style="edgeStyle=orthogonalEdgeStyle;rounded=0;orthogonalLoop=1;jettySize=auto;html=1;" edge="1" parent="1" source="LUR7WWk-kfDivNET-B8A-17" target="LUR7WWk-kfDivNET-B8A-20">
          <mxGeometry relative="1" as="geometry" />
        </mxCell>
        <mxCell id="LUR7WWk-kfDivNET-B8A-14" value="True" style="edgeLabel;html=1;align=center;verticalAlign=middle;resizable=0;points=[];" vertex="1" connectable="0" parent="LUR7WWk-kfDivNET-B8A-13">
          <mxGeometry x="-0.0381" y="-3" relative="1" as="geometry">
            <mxPoint as="offset" />
          </mxGeometry>
        </mxCell>
        <mxCell id="LUR7WWk-kfDivNET-B8A-15" value="" style="edgeStyle=orthogonalEdgeStyle;rounded=0;orthogonalLoop=1;jettySize=auto;html=1;" edge="1" parent="1" source="LUR7WWk-kfDivNET-B8A-17" target="LUR7WWk-kfDivNET-B8A-21">
          <mxGeometry relative="1" as="geometry" />
        </mxCell>
        <mxCell id="LUR7WWk-kfDivNET-B8A-16" value="False" style="edgeLabel;html=1;align=center;verticalAlign=middle;resizable=0;points=[];" vertex="1" connectable="0" parent="LUR7WWk-kfDivNET-B8A-15">
          <mxGeometry x="0.02" relative="1" as="geometry">
            <mxPoint as="offset" />
          </mxGeometry>
        </mxCell>
        <mxCell id="LUR7WWk-kfDivNET-B8A-17" value="num2&amp;lt;num3" style="rhombus;whiteSpace=wrap;html=1;" vertex="1" parent="1">
          <mxGeometry x="610" y="320" width="160" height="120" as="geometry" />
        </mxCell>
        <mxCell id="LUR7WWk-kfDivNET-B8A-18" value="num1" style="whiteSpace=wrap;html=1;" vertex="1" parent="1">
          <mxGeometry x="40" y="550" width="120" height="60" as="geometry" />
        </mxCell>
        <mxCell id="LUR7WWk-kfDivNET-B8A-19" value="num3" style="whiteSpace=wrap;html=1;" vertex="1" parent="1">
          <mxGeometry x="260" y="550" width="120" height="60" as="geometry" />
        </mxCell>
        <mxCell id="LUR7WWk-kfDivNET-B8A-20" value="num2" style="whiteSpace=wrap;html=1;" vertex="1" parent="1">
          <mxGeometry x="530" y="550" width="120" height="60" as="geometry" />
        </mxCell>
        <mxCell id="LUR7WWk-kfDivNET-B8A-21" value="num3" style="whiteSpace=wrap;html=1;" vertex="1" parent="1">
          <mxGeometry x="720" y="550" width="120" height="60" as="geometry" />
        </mxCell>
        <mxCell id="LUR7WWk-kfDivNET-B8A-22" value="Enter value for num1&lt;br&gt;Enter value for num2&lt;br&gt;Enter value for num3" style="rounded=1;whiteSpace=wrap;html=1;" vertex="1" parent="1">
          <mxGeometry x="300" y="110" width="280" height="60" as="geometry" />
        </mxCell>
      </root>
    </mxGraphModel>
  </diagram>
</mxfile>
